:SAMPLES-PER-SECOND 30
:FULLY-SPECIFIED
:DEGREES
148
root  -19.6654 40.5842 -27.985 179.874 77.2442 -172.862
RightUpLeg  15.9696 -7.12641 -2.68653
RightLeg  3.48044 0.193257 3.28448
RightFoot  -10.0628 -0.0461567 -1.81266
RightToes  0.00048216 0.542163 -0.142577
Spine  18.73 -2.21444 7.75772
Spine1  10.5511 0.388113 -5.14509
HEad  -5.10395 -5.75915 3.28936
LeftShoulder1  8.04724 -12.7742 -42.9818
LeftArm  -22.3893 27.3996 -20.29
LeftForeArm  100.735 -77.8828 -117.041
LeftHand  -0.25398 0.0180481 5.50724
RightShoulder  5.59813 9.61315 36.6798
RightArm  -11.1771 -25.8366 29.0151
RightForeArm  81.0798 70.8633 140.787
RightHand  1.1926 -12.9322 -18.887
LeftUpLeg  -12.2729 6.07638 5.14651
LeftLeg  8.3826 5.12352 -1.04778
LeftFoot  -4.661 0.345853 -5.46136
LeftToes  1.06245e-005 4.65855e-005 -8.18504e-006
149
root  -18.2144 40.3414 -28.5559 -177.941 80.9621 -170.295
RightUpLeg  17.9969 -6.89433 -3.56078
RightLeg  4.56184 3.78127 2.41167
RightFoot  -12.0568 -0.0903822 -0.973516
RightToes  0.00048216 0.542163 -0.142577
Spine  18.0143 -1.71018 7.29789
Spine1  10.8748 0.915881 -5.55503
HEad  -3.93055 -3.97887 2.98121
LeftShoulder1  7.97423 -12.6707 -42.8567
LeftArm  -22.3251 27.6281 -20.0559
LeftForeArm  101.006 -77.8567 -117.296
LeftHand  -0.25398 0.0180481 5.50724
RightShoulder  5.59035 9.60868 36.636
RightArm  -10.8584 -25.9071 29.2886
RightForeArm  79.6314 71.0449 140.239
RightHand  1.23759 -12.9024 -19.6131
LeftUpLeg  -12.452 5.50483 6.66093
LeftLeg  5.40317 5.34722 -1.84146
LeftFoot  -5.28052 0.331117 -5.63024
LeftToes  1.06245e-005 4.65855e-005 -8.18504e-006
150
root  -16.7327 39.9949 -29.206 -178.998 83.5273 -169.702
RightUpLeg  20.9368 -6.7262 -4.9299
RightLeg  6.91262 5.49816 1.28791
RightFoot  -14.4689 -0.130006 -1.13204
RightToes  0.00048216 0.542163 -0.142577
Spine  18.7849 -1.63818 6.41931
Spine1  10.784 0.88865 -5.61627
HEad  -2.56887 -2.52538 2.53342
LeftShoulder1  7.91185 -12.629 -42.6162
LeftArm  -21.645 27.5267 -19.8363
LeftForeArm  101.325 -77.8232 -117.61
LeftHand  -0.25398 0.0180481 5.50724
RightShoulder  5.53912 9.58225 36.339
RightArm  -10.7312 -26.2574 29.4834
RightForeArm  78.7013 71.1662 139.871
RightHand  1.23116 -12.6203 -20.2311
LeftUpLeg  -11.2133 5.89471 6.90669
LeftLeg  6.01278 7.29954 -1.4899
LeftFoot  -4.23564 0.307756 -4.61437
LeftToes  1.06245e-005 4.65855e-005 -8.18504e-006
151
root  -15.2091 39.5865 -29.8757 174.889 85.7759 -174.187
RightUpLeg  23.0695 -4.9125 -6.07087
RightLeg  10.8124 4.9717 0.207703
RightFoot  -17.1169 -0.0778762 0.496052
RightToes  0.00048216 0.542163 -0.142577
Spine  19.5234 -1.39983 4.81267
Spine1  10.537 0.714903 -5.19627
HEad  -1.22011 -1.32054 2.12759
LeftShoulder1  7.77612 -12.4986 -42.1993
LeftArm  -20.362 27.254 -19.7443
LeftForeArm  101.855 -77.7757 -118.076
LeftHand  -0.25398 0.0180481 5.50724
RightShoulder  5.52565 9.59359 36.2029
RightArm  -10.5257 -26.9253 28.9994
RightForeArm  78.0907 71.1051 139.978
RightHand  1.22773 -12.4468 -20.6412
LeftUpLeg  -10.103 7.93054 6.35142
LeftLeg  10.027 8.51605 -0.545294
LeftFoot  0.0263617 0.357561 -3.57875
LeftToes  1.06245e-005 4.65855e-005 -8.18504e-006
152
root  -13.6819 39.2156 -30.5305 149.327 87.6087 161.064
RightUpLeg  22.725 -0.192881 -6.642
RightLeg  17.5011 1.71537 0.0639276
RightFoot  -18.3892 0.225095 5.92746
RightToes  0.00048216 0.542163 -0.142577
Spine  19.417 -0.935166 2.49685
Spine1  10.2403 0.446984 -4.36355
HEad  0.142169 -0.206403 1.87035
LeftShoulder1  7.65171 -12.3171 -41.9871
LeftArm  -18.8203 26.8072 -19.5752
LeftForeArm  100.984 -77.8967 -117.026
LeftHand  -0.25398 0.0180481 5.50724
RightShoulder  5.56088 9.61092 36.4104
RightArm  -10.2576 -27.5754 28.0293
RightForeArm  76.9376 71.1894 139.683
RightHand  1.26011 -12.5887 -20.7494
LeftUpLeg  -9.93085 12.797 4.90505
LeftLeg  15.6546 5.36957 0.668239
LeftFoot  3.64543 0.394223 -3.16541
LeftToes  1.06245e-005 4.65855e-005 -8.18504e-006
153
root  -12.1882 39.0476 -31.189 89.4687 88.1009 100.983
RightUpLeg  18.9065 1.842 -8.66531
RightLeg  27.6351 -0.246544 -0.363874
RightFoot  -14.7353 0.209386 10.7972
RightToes  0.00048216 0.542163 -0.142577
Spine  18.1323 -0.498444 0.419311
Spine1  10.2725 0.320161 -3.82559
HEad  1.6348 0.846144 1.51334
LeftShoulder1  7.69288 -12.2887 -42.3087
LeftArm  -17.4829 26.0132 -19.1089
LeftForeArm  97.2812 -78.2726 -113.133
LeftHand  -0.25398 0.0180481 5.50724
RightShoulder  5.58891 9.59176 36.679
RightArm  -10.4245 -27.9919 27.5402
RightForeArm  75.3239 71.6194 138.448
RightHand  1.21707 -12.2753 -20.9605
LeftUpLeg  -10.1691 16.6924 3.18064
LeftLeg  20.6808 2.58451 1.55014
LeftFoot  2.53641 0.269262 -2.29318
LeftToes  1.06245e-005 4.65855e-005 -8.18504e-006
154
root  -10.7443 39.1361 -31.8689 44.2534 86.2902 55.0671
RightUpLeg  12.0431 1.63588 -11.2283
RightLeg  39.7187 -2.72127 -2.74936
RightFoot  -4.91761 -0.483574 9.2558
RightToes  0.00048216 0.542163 -0.142577
Spine  16.4218 -0.294311 -0.720088
Spine1  10.5418 0.467234 -4.08374
HEad  3.19447 1.85739 0.649113
LeftShoulder1  7.86808 -12.4345 -42.9153
LeftArm  -16.5144 24.9227 -18.5128
LeftForeArm  91.9302 -78.6711 -107.733
LeftHand  -0.25398 0.0180481 5.50724
RightShoulder  5.58369 9.57334 36.6986
RightArm  -11.238 -28.3812 27.8784
RightForeArm  74.3803 72.031 137.244
RightHand  1.08668 -11.4504 -21.2867
LeftUpLeg  -9.26274 17.6717 1.76831
LeftLeg  23.1972 3.84352 2.1445
LeftFoot  -1.4049 0.0904138 -0.953023
LeftToes  1.06245e-005 4.65855e-005 -8.18504e-006
155
root  -9.38211 39.3242 -32.4864 32.4907 83.7454 42.4249
RightUpLeg  3.82473 0.824197 -12.9046
RightLeg  50.4776 -4.42385 -6.02603
RightFoot  5.2512 -0.391039 2.81488
RightToes  0.00048216 0.542163 -0.142577
Spine  14.9242 -0.0937617 -1.4752
Spine1  10.631 0.720009 -4.50495
HEad  4.60882 2.98373 -0.776005
LeftShoulder1  7.97046 -12.5141 -43.2795
LeftArm  -15.7702 23.9298 -18.2322
LeftForeArm  87.7154 -78.8899 -103.591
LeftHand  -0.25398 0.0180481 5.50724
RightShoulder  5.56344 9.58858 36.4999
RightArm  -12.1146 -28.9074 28.3168
RightForeArm  74.565 72.0723 137.138
RightHand  1.06731 -11.4188 -21.0606
LeftUpLeg  -7.35378 19.9741 0.501233
LeftLeg  23.0659 4.6098 2.50953
LeftFoot  -4.30718 0.0609388 -0.605982
LeftToes  1.06245e-005 4.65855e-005 -8.18504e-006
156
root  -8.06073 39.5754 -32.9538 22.369 81.8348 31.4826
RightUpLeg  -3.30036 -1.04547 -12.4756
RightLeg  56.9247 -4.05365 -7.07052
RightFoot  9.24004 0.210394 -0.917826
RightToes  0.00048216 0.542163 -0.142577
Spine  13.7683 0.0253139 -1.72518
Spine1  10.5521 0.722351 -4.17661
HEad  5.71499 4.3084 -2.29675
LeftShoulder1  7.91608 -12.4039 -43.2812
LeftArm  -15.1542 23.3518 -18.4223
LeftForeArm  85.519 -78.9755 -101.458
LeftHand  -0.25398 0.0180481 5.50724
RightShoulder  5.54485 9.60997 36.2943
RightArm  -12.435 -29.4113 28.2102
RightForeArm  74.7247 71.9186 137.585
RightHand  1.18015 -12.2082 -20.5422
LeftUpLeg  -4.68612 23.3933 0.964281
LeftLeg  21.5243 3.54459 1.81304
LeftFoot  -5.58805 0.103818 -1.4007
LeftToes  1.06245e-005 4.65855e-005 -8.18504e-006
157
root  -6.74594 39.8817 -33.3149 11.7879 81.112 20.7488
RightUpLeg  -7.67372 -4.54281 -10.1465
RightLeg  58.2004 -2.88694 -5.50797
RightFoot  8.07089 -0.0510835 0.683121
RightToes  0.00048216 0.542163 -0.142577
Spine  13.6554 -0.300705 -1.25368
Spine1  10.3329 0.15335 -3.30418
HEad  6.47913 5.63433 -3.42994
LeftShoulder1  7.84745 -12.287 -43.2199
LeftArm  -14.7203 23.0951 -18.7951
LeftForeArm  84.3699 -79.0185 -100.284
LeftHand  -0.25398 0.0180481 5.50724
RightShoulder  5.5241 9.61573 36.1219
RightArm  -12.3829 -29.7832 27.8143
RightForeArm  73.9531 71.8467 137.73
RightHand  1.11593 -11.6484 -21.2267
LeftUpLeg  -0.967476 24.9914 3.27035
LeftLeg  19.6891 2.84756 0.479975
LeftFoot  -6.77134 0.122229 -2.02604
LeftToes  1.06245e-005 4.65855e-005 -8.18504e-006
158
root  -5.45476 40.1056 -33.6359 5.27829 80.3046 13.5688
RightUpLeg  -11.5472 -8.40608 -7.34926
RightLeg  55.5872 -2.3364 -4.07697
RightFoot  5.89722 -0.640205 4.4659
RightToes  0.00048216 0.542163 -0.142577
Spine  12.9522 -0.598116 -0.994792
Spine1  10.4616 -0.384783 -2.68371
HEad  6.95922 6.69626 -4.15493
LeftShoulder1  7.87378 -12.3324 -43.2421
LeftArm  -14.4809 22.8473 -19.1218
LeftForeArm  84.0412 -79.037 -99.8564
LeftHand  -0.25398 0.0180481 5.50724
RightShoulder  5.48518 9.61795 35.8251
RightArm  -12.5129 -30.2022 27.6704
RightForeArm  73.0628 71.7394 137.965
RightHand  0.678105 -8.86328 -23.3808
LeftUpLeg  1.84737 22.7275 4.77966
LeftLeg  18.0753 5.99948 -0.801755
LeftFoot  -8.29396 0.102144 -1.95901
LeftToes  1.06245e-005 4.65855e-005 -8.18504e-006
159
root  -4.14214 40.2547 -33.9409 1.03252 78.8509 8.31863
RightUpLeg  -15.1233 -11.3573 -3.81621
RightLeg  49.9331 -3.54089 -4.80284
RightFoot  4.46979 -0.669814 5.0063
RightToes  0.00048216 0.542163 -0.142577
Spine  11.6924 -0.640124 -0.444567
Spine1  10.8894 -0.440611 -2.48633
HEad  7.23737 7.49638 -4.67548
LeftShoulder1  7.90135 -12.4164 -43.1602
LeftArm  -14.361 22.4131 -19.533
LeftForeArm  84.8303 -79.0207 -100.513
LeftHand  -0.25398 0.0180481 5.50724
RightShoulder  5.42147 9.61469 35.3595
RightArm  -12.8829 -30.7228 27.7793
RightForeArm  73.2151 71.3887 138.919
RightHand  0.194473 -6.34702 -25.0717
LeftUpLeg  4.33277 17.6738 5.27968
LeftLeg  15.7635 12.471 -2.16528
LeftFoot  -9.44082 0.0916523 -2.12454
LeftToes  1.06245e-005 4.65855e-005 -8.18504e-006
160
root  -2.81871 40.2708 -34.2165 -0.114853 76.7888 6.04019
RightUpLeg  -17.9896 -13.5416 -0.202421
RightLeg  41.7498 -5.30785 -5.35314
RightFoot  2.92979 -0.390283 3.28886
RightToes  0.00048216 0.542163 -0.142577
Spine  10.3188 -0.41086 -0.129022
Spine1  11.2224 -0.136874 -2.42919
HEad  7.34826 8.41756 -5.01194
LeftShoulder1  7.82156 -12.359 -42.8609
LeftArm  -14.3259 21.819 -20.1267
LeftForeArm  86.2435 -78.9794 -101.796
LeftHand  -0.25398 0.0180481 5.50724
RightShoulder  5.3568 9.60209 34.9138
RightArm  -13.136 -31.0367 27.8055
RightForeArm  74.2012 70.9113 140.199
RightHand  0.197537 -6.39054 -24.9274
LeftUpLeg  6.5355 12.9525 4.66052
LeftLeg  13.2536 18.9755 -3.42192
LeftFoot  -10.5342 0.0827595 -2.90565
LeftToes  1.06245e-005 4.65855e-005 -8.18504e-006
